{"title":"L.Era.Glaciale.3.L.Alba.Dei.Dinosauri.2009.iTALiAN.MD.DVDScr.(s@","uid":5072283,"size":735158272,"categoryP":"video","categoryS":"movies","magnet":"?xt=urn:btih:8c46ca456ca00a7ed4a69aace9476fbd6a6a279f&amp;dn=L.Era.Glaciale.3.L.Alba.Dei.Dinosauri.2009.iTALiAN.MD.DVDScr.%28s%40&amp;tr=udp%3A%2F%2Ftracker.openbittorrent.com%3A80&amp;tr=udp%3A%2F%2Fopen.demonii.com%3A1337&amp;tr=udp%3A%2F%2Ftracker.coppersurfer.tk%3A6969&amp;tr=udp%3A%2F%2Fexodus.desync.com%3A6969","seeders":3,"leechers":1,"uploader":"misafor","files":1,"time":1251508793,"description":"[code]General\nComplete name                    : L.Era.Glaciale.3.L.Alba.Dei.Dinosauri.2009.iTALiAN.MD.DVDScr.(s@m)[survivalofmisa].avi\nFormat                           : AVI\nFormat/Info                      : Audio Video Interleave\nFile size                        : 701 MiB\nDuration                         : 1h 30mn\nOverall bit rate                 : 1 087 Kbps\nWriting application              : Nandub v1.0rc2\nWriting library                  : Nandub build 1853/release\n\nVideo\nID                               : 0\nFormat                           : MPEG-4 Visual\nFormat profile                   : AdvancedSimple@L5\nFormat settings, BVOP            : Yes\nFormat settings, QPel            : No\nFormat settings, GMC             : No warppoints\nFormat settings, Matrix          : Default (H.263)\nCodec ID                         : XVID\nCodec ID/Hint                    : XviD\nDuration                         : 1h 30mn\nBit rate                         : 947 Kbps\nWidth                            : 640 pixels\nHeight                           : 352 pixels\nDisplay aspect ratio             : 16/9\nFrame rate                       : 25.000 fps\nResolution                       : 24 bits\nColorimetry                      : 4:2:0\nScan type                        : Progressive\nBits/(Pixel*Frame)               : 0.168\nStream size                      : 611 MiB (87%)\nWriting library                  : XviD 1.1.2 (UTC 2006-11-01)\n\nAudio\nID                               : 1\nFormat                           : MPEG Audio\nFormat version                   : Version 1\nFormat profile                   : Layer 3\nCodec ID                         : 55\nCodec ID/Hint                    : MP3\nDuration                         : 1h 30mn\nBit rate mode                    : Constant\nBit rate                         : 128 Kbps\nChannel(s)                       : 2 channels\nSampling rate                    : 44.1 KHz\nResolution                       : 16 bits\nStream size                      : 82.6 MiB (12%)\nAlignment                        : Aligned on interleaves\nInterleave, duration             : 26 ms (0.65 video frame)\nInterleave, preload duration     : 496 ms\n[/code]\n\n\n\n","torrent":{"xt":"urn:btih:8c46ca456ca00a7ed4a69aace9476fbd6a6a279f","amp;dn":"L.Era.Glaciale.3.L.Alba.Dei.Dinosauri.2009.iTALiAN.MD.DVDScr.%28s%40","amp;tr":["udp%3A%2F%2Ftracker.openbittorrent.com%3A80","udp%3A%2F%2Fopen.demonii.com%3A1337","udp%3A%2F%2Ftracker.coppersurfer.tk%3A6969","udp%3A%2F%2Fexodus.desync.com%3A6969"],"infoHash":"8c46ca456ca00a7ed4a69aace9476fbd6a6a279f","infoHashBuffer":{"type":"Buffer","data":[140,70,202,69,108,160,10,126,212,166,154,172,233,71,111,189,106,106,39,159]},"announce":[],"urlList":[]}}